<svg width="1" height="1" viewBox="0 0 1 1" fill="none" xmlns="http://www.w3.org/2000/svg">
    <g clip-path="url(#clip0_1_2)">
        <path fill-rule="evenodd" clip-rule="evenodd" d="M0.508015 0.217594C0.673234 0.219937 0.808781 0.368484 0.876672 0.496297C0.876672 0.496297 0.852781 0.545187 0.830375 0.576484C0.819531 0.591625 0.808125 0.606375 0.79614 0.620641C0.787593 0.630797 0.778765 0.640687 0.769609 0.650297C0.687781 0.736234 0.570265 0.800344 0.446172 0.775453C0.308312 0.747797 0.195859 0.629672 0.128265 0.502625C0.128265 0.502625 0.152265 0.453687 0.174797 0.422437C0.18489 0.408422 0.195484 0.394781 0.206578 0.381547C0.215078 0.371406 0.22389 0.361516 0.233 0.351906C0.305297 0.275719 0.398062 0.217062 0.508015 0.217594V0.217594ZM0.507437 0.280094C0.415406 0.27975 0.338875 0.331141 0.278328 0.394937C0.270094 0.403609 0.262156 0.412547 0.254469 0.421703C0.244359 0.433766 0.234703 0.446219 0.2255 0.458984C0.216297 0.471734 0.206859 0.487828 0.199375 0.5015C0.258969 0.601641 0.348422 0.692094 0.458468 0.714172C0.561015 0.73475 0.656719 0.678219 0.724344 0.607203C0.732609 0.598531 0.740593 0.589578 0.748312 0.580406C0.75925 0.567391 0.769656 0.553937 0.779547 0.540109C0.788703 0.527312 0.798125 0.511187 0.805593 0.4975C0.74375 0.393984 0.637937 0.282125 0.507437 0.280094Z" fill="#35a5d1"/>
        <path fill-rule="evenodd" clip-rule="evenodd" d="M0.502463 0.374187C0.571604 0.374187 0.627744 0.430328 0.627744 0.499453C0.627744 0.568594 0.571604 0.624719 0.502463 0.624719C0.433338 0.624719 0.377197 0.568594 0.377197 0.499453C0.377197 0.430328 0.433338 0.374187 0.502463 0.374187ZM0.502463 0.436828C0.537041 0.436828 0.565104 0.464891 0.565104 0.499453C0.565104 0.534031 0.537041 0.562094 0.502463 0.562094C0.4679 0.562094 0.439838 0.534031 0.439838 0.499453C0.439838 0.464891 0.4679 0.436828 0.502463 0.436828V0.436828Z" fill="#35a5d1"/>
    </g>
    <defs>
        <clipPath id="clip0_1_2">
        <rect width="1" height="1" fill="white"/>
        </clipPath>
    </defs>
</svg>
