<svg width="1" height="1" viewBox="0 0 1 1" fill="none" xmlns="http://www.w3.org/2000/svg">
    <g clip-path="url(#clip0_0_3)">
        <path fill-rule="evenodd" clip-rule="evenodd" d="M0.213628 0.161641L0.165237 0.210016L0.787941 0.832734L0.836331 0.784344L0.213628 0.161641Z" fill="#35a5d1"/>
        <path d="M0.267478 0.31225L0.313024 0.357797C0.263165 0.40025 0.223462 0.453094 0.197806 0.499328L0.197728 0.499484C0.269181 0.618953 0.382556 0.731859 0.525649 0.714734C0.564274 0.710109 0.600306 0.696906 0.633228 0.678016L0.679337 0.724109C0.615165 0.765297 0.541603 0.787109 0.461899 0.776328C0.318181 0.756891 0.200665 0.639016 0.126587 0.500578C0.161368 0.430594 0.208946 0.363641 0.267478 0.31225ZM0.371071 0.24475C0.411259 0.226844 0.454743 0.216313 0.501181 0.215563C0.503759 0.215547 0.534368 0.217 0.548243 0.219281C0.556946 0.220719 0.565618 0.222516 0.574165 0.22475C0.710493 0.260266 0.811493 0.375516 0.874993 0.49425C0.848352 0.548047 0.813462 0.600547 0.771852 0.645531L0.727681 0.601359C0.758415 0.568234 0.78404 0.531359 0.803774 0.495594C0.803774 0.495594 0.783931 0.463688 0.768884 0.443656C0.759212 0.430781 0.74904 0.418281 0.738353 0.406234C0.729915 0.396734 0.697149 0.364469 0.689353 0.35775C0.63704 0.312766 0.575618 0.277469 0.501946 0.278063C0.473415 0.278516 0.445978 0.284141 0.419931 0.293609L0.371071 0.24475Z" fill="#35a5d1"/>
        <path fill-rule="evenodd" clip-rule="evenodd" d="M0.391456 0.43625L0.428941 0.473719C0.426488 0.481172 0.425144 0.489141 0.425144 0.497406C0.425144 0.539156 0.459034 0.573047 0.500784 0.573047C0.50905 0.573047 0.517019 0.571719 0.524472 0.56925L0.561956 0.606734C0.543863 0.616891 0.522988 0.622672 0.500784 0.622672C0.431644 0.622672 0.375519 0.566547 0.375519 0.497406C0.375519 0.475203 0.381316 0.454344 0.391456 0.43625ZM0.498472 0.372172C0.499238 0.372156 0.500019 0.372141 0.500784 0.372141C0.569925 0.372141 0.62605 0.428281 0.62605 0.497406C0.62605 0.498188 0.62605 0.498953 0.626034 0.499719L0.498472 0.372172Z" fill="#35a5d1"/>
    </g>
    <defs>
        <clipPath id="clip0_0_3">
        <rect width="1" height="1" fill="white"/>
        </clipPath>
    </defs>
</svg>
